<svg width="62" height="59" viewBox="0 0 62 59" fill="none" xmlns="http://www.w3.org/2000/svg">
<path d="M58.688 0.232396C58.4203 0.454523 58.1011 0.70694 57.3081 1.30264C57.0816 1.47429 56.855 1.64593 56.7932 1.69641C56.7417 1.7368 56.5049 1.90844 56.2783 2.06999C56.0518 2.24163 55.8149 2.41328 55.7531 2.47386C55.6913 2.52434 55.4854 2.69599 55.2897 2.84744C54.3938 3.53401 53.0757 4.56387 52.9315 4.67493C52.8491 4.74561 52.5711 4.95764 52.3136 5.14948C52.0562 5.34131 51.8296 5.52305 51.7987 5.55334C51.7678 5.58363 51.2632 5.9875 50.6659 6.45195C50.0686 6.9063 49.492 7.36065 49.3787 7.45152C49.2654 7.54239 48.8947 7.8251 48.5548 8.07751C48.215 8.32993 47.9164 8.55206 47.8855 8.58235C47.8546 8.61264 47.628 8.79438 47.3706 8.98621C47.1131 9.17805 46.8866 9.35979 46.8557 9.39008C46.8248 9.42037 46.0833 9.97569 45.208 10.6219C43.9002 11.5811 41.8097 13.2167 40.7284 14.1153C40.6151 14.2062 40.3165 14.4485 40.059 14.6404C39.6368 14.9634 39.2764 15.2663 38.8336 15.65C38.7409 15.7308 38.4526 15.963 38.2054 16.1549C37.948 16.3467 37.6493 16.5789 37.536 16.6698C35.0439 18.6689 32.5312 20.4459 31.0689 21.2436C30.5849 21.5061 30.2245 21.5768 30.1524 21.4253C30.1421 21.3849 29.6581 20.971 29.102 20.5065C27.7736 19.4161 27.1454 18.8305 23.2425 15.0947C22.2745 14.1658 21.4506 13.4288 20.4414 12.5705C19.1645 11.4902 18.6599 11.056 17.8155 10.2685C16.8989 9.43047 15.5705 8.65302 14.5201 8.36022C13.202 7.97655 12.6356 7.94626 8.86654 8.01693C3.42922 8.1078 0 8.19867 0 8.24916C0 8.61264 6.11698 14.6807 10.6687 18.8305C11.338 19.4363 12.1207 20.1632 12.409 20.4459C12.6974 20.7185 13.3667 21.3344 13.9022 21.809C14.4274 22.2835 14.9835 22.7783 15.1277 22.9196C15.2822 23.061 15.7147 23.4447 16.0957 23.7778C16.487 24.111 16.9504 24.5149 17.1358 24.6865C18.423 25.8477 18.7526 26.1304 20.0604 27.2107C20.2046 27.3218 20.4517 27.5439 20.6371 27.6954C20.8122 27.8468 21.2447 28.1901 21.6051 28.4425C22.0891 28.7858 22.2333 28.9473 22.1818 29.0685C22.1406 29.1594 22.0891 29.3512 22.0582 29.5128C22.0376 29.6642 21.9758 29.8157 21.9243 29.8459C21.8729 29.8762 21.8317 29.9772 21.8317 30.0681C21.8317 30.5224 20.3385 33.087 19.0924 34.7529C18.7526 35.2174 18.0214 36.2068 17.4756 36.954C16.9298 37.7012 16.4355 38.3675 16.384 38.4382C16.1884 38.6603 15.4469 39.8921 15.4469 39.983C15.4469 40.0436 15.416 40.084 15.3645 40.084C15.3234 40.084 15.2307 40.2354 15.1483 40.4071C15.0762 40.5888 14.9423 40.9018 14.8599 41.0936C14.7776 41.2855 14.654 41.548 14.6025 41.6692C14.4068 42.073 14.5819 42.1235 14.8496 41.7297C15.138 41.2956 17.3829 39.0743 18.4333 38.1757C18.7938 37.8627 19.2366 37.4689 19.4116 37.3074C19.5764 37.1357 19.9059 36.8429 20.1325 36.6511C21.0696 35.8636 22.0994 34.9751 22.3466 34.7327C22.4907 34.5914 22.9335 34.2077 23.3249 33.8745C23.7265 33.5413 24.0972 33.2283 24.159 33.1678C24.2208 33.1173 24.6533 32.7336 25.1167 32.3196C26.2083 31.3503 27.7015 29.9166 27.7015 29.8358C27.7015 29.6036 26.2186 28.0891 24.6121 26.6554C23.5926 25.7467 21.5845 23.7879 17.3521 19.5776C15.9412 18.1641 13.5212 15.7611 11.9765 14.2264C9.42263 11.6921 9.18577 11.4296 9.42263 11.3791C9.5668 11.3589 10.4421 11.3286 11.3586 11.3185C14.7673 11.2782 15.2204 11.5407 19.9265 16.4376C21.1417 17.6996 23.2116 19.7089 24.262 20.6479C24.8799 21.2032 25.4565 21.7282 25.5389 21.809C25.6213 21.8898 26.0126 22.2331 26.4143 22.5662C26.8056 22.8994 27.2072 23.2427 27.2999 23.3235C27.5882 23.5961 28.7519 24.5856 28.8343 24.6361C28.8858 24.6663 29.3183 25.05 29.8126 25.4943C30.3069 25.9385 30.7703 26.3424 30.8527 26.3828C31.038 26.4838 31.3058 26.403 31.5735 26.1708C31.6868 26.0799 32.0987 25.7265 32.49 25.3933C32.8917 25.0601 33.3036 24.6966 33.4272 24.5856C33.5404 24.4745 33.9729 24.0908 34.3746 23.7375C34.7865 23.3841 35.2705 22.9499 35.4559 22.7783C35.6412 22.6066 36.1458 22.1523 36.568 21.7686C38.2981 20.1935 41.6655 17.0636 43.2617 15.5491C43.6427 15.1856 44.9918 13.9134 46.2481 12.722C49.0183 10.1069 57.6273 1.68632 58.3173 0.908873C58.7601 0.424233 59.0691 -0.00992399 58.9867 0.000172685C58.9661 0.000172685 58.8322 0.111236 58.688 0.232396Z" fill="#C7C2C2"/>
<path d="M46.3153 18.402C45.8319 18.7344 43.8366 20.3029 43.6617 20.4899C43.6309 20.5211 43.2915 20.8223 42.9006 21.1651C42.4995 21.5079 42.0881 21.8818 41.9647 21.9961C41.8413 22.1104 41.4196 22.4947 41.0287 22.8479C38.6426 24.967 35.7011 27.9794 34.7754 29.2363L34.4874 29.6311L35.084 30.379C35.6702 31.1373 38.2415 33.7653 39.5991 35.0223C40.0002 35.3858 40.5556 35.8948 40.8333 36.1649C41.1213 36.4246 41.6664 36.9232 42.0573 37.266C42.4481 37.6088 42.8698 37.9827 42.9932 38.097C43.384 38.471 44.9371 39.8733 45.4513 40.3304C45.9553 40.7666 46.449 41.2133 47.5392 42.2521C48.6808 43.3324 50.8304 45.5138 51.3755 46.1371C52.1366 47.02 52.8669 48.1003 52.7743 48.1938C52.7332 48.2458 51.9412 48.2977 51.0155 48.3185C48.5574 48.3704 47.5289 48.1003 46.449 47.1447C46.0581 46.8019 44.8959 45.7008 44.0217 44.849C43.3532 44.1946 42.1498 43.0519 40.7819 41.7846C40.1957 41.2445 38.8277 39.9045 37.7375 38.8241C34.3846 35.4689 33.243 34.399 31.5562 33.0798L31.1242 32.737L30.7025 33.007C30.2809 33.2771 28.6867 34.5964 27.833 35.3858C27.3599 35.8221 26.9691 36.1753 26.4342 36.6531C26.1565 36.9024 24.4698 38.4814 22.9476 39.9149C22.6185 40.2265 22.0322 40.7874 21.6517 41.1614C21.2711 41.5353 20.5718 42.2105 20.0986 42.6572C13.9173 48.5678 3.81738 58.8204 4.00251 58.997C4.04365 59.0386 4.67104 58.6438 5.70983 57.9167C6.25494 57.5324 8.13711 56.1716 8.2811 56.0469C8.44566 55.9119 9.49474 55.0913 9.9987 54.6965C10.153 54.5719 10.3895 54.3849 10.513 54.281C10.6364 54.1771 10.8832 53.9798 11.0684 53.8343C11.2535 53.6889 11.4489 53.5227 11.5106 53.4708C11.5723 53.4084 12.138 52.9514 12.7551 52.4528C14.1847 51.2998 14.6476 50.9154 14.8533 50.718C14.9458 50.6349 15.1824 50.448 15.3778 50.3025C15.5732 50.1675 15.8098 49.9805 15.892 49.887C15.9743 49.8039 16.324 49.5235 16.6634 49.2638C17.0028 49.0041 17.332 48.7444 17.3937 48.6924C17.4657 48.6301 17.6405 48.4951 17.8051 48.3808C17.9593 48.2665 18.2062 48.0692 18.3502 47.9445C18.4942 47.8199 19.029 47.3836 19.533 46.9785C20.0266 46.5837 20.6129 46.1163 20.8186 45.9397C21.0243 45.7735 21.4871 45.3995 21.8574 45.0983C22.2276 44.8074 22.5465 44.5374 22.5773 44.4958C22.6082 44.4647 22.8139 44.2985 23.0402 44.1219C23.2664 43.9557 23.4721 43.7895 23.503 43.7583C23.5339 43.7271 23.7601 43.5402 24.0173 43.3428C24.6344 42.865 24.6755 42.8234 25.4674 42.1794C25.8377 41.8781 26.2697 41.5353 26.424 41.4211C26.5782 41.3068 27.2262 40.8186 27.8639 40.3304C29.2729 39.25 31.0317 38.0451 31.1962 38.0451C31.2682 38.0451 31.3196 38.0035 31.3196 37.9516C31.3196 37.8996 31.4225 37.8373 31.5356 37.8062C31.8339 37.7231 33.2327 38.928 35.3925 41.099C36.2976 42.0236 37.3467 43.0519 37.7067 43.3843C38.0667 43.7167 38.7146 44.3296 39.1363 44.7347C39.5683 45.1399 40.1237 45.6489 40.3705 45.8566C40.6276 46.0747 40.9053 46.3241 40.9979 46.4072C41.1007 46.5006 41.3167 46.6876 41.5019 46.8227C42.0161 47.207 42.5098 47.6952 43.456 48.7548C45.5336 51.0712 46.017 51.4036 47.5701 51.5491C48.6706 51.6633 59.799 51.6737 61.1361 51.5698L62 51.4971L61.4549 50.8219C60.8686 50.1052 56.3946 45.5865 53.8851 43.187C53.052 42.3871 52.0646 41.4315 51.6841 41.0575C51.2932 40.6835 50.6967 40.1018 50.3367 39.7694C49.3391 38.8345 46.5827 36.2065 45.8524 35.5001C45.5028 35.1573 44.6697 34.3574 44.0114 33.7342C43.3429 33.1005 42.1087 31.906 41.2653 31.0749L39.7328 29.5583L40.1751 28.8416C40.4219 28.4469 40.6585 28.1041 40.6996 28.0937C40.7408 28.0729 40.7819 28.0106 40.7819 27.9482C40.7819 27.8859 40.9362 27.6262 41.1213 27.3562C41.3167 27.0965 41.7384 26.4316 42.0675 25.8915C42.4069 25.3513 42.7361 24.8423 42.8081 24.7696C42.8801 24.6969 42.9418 24.5619 42.9418 24.4788C42.9418 24.3957 42.9932 24.3333 43.0446 24.3333C43.1063 24.3333 43.1475 24.271 43.1475 24.1879C43.1475 24.1048 43.1886 24.0217 43.2298 24.0009C43.2709 23.9802 43.5074 23.6477 43.7543 23.2426C44.0114 22.8479 44.2685 22.4532 44.3508 22.3805C44.4228 22.3077 44.4845 22.1727 44.4845 22.0896C44.4845 22.0065 44.536 21.9442 44.5874 21.9442C44.6491 21.9442 44.6902 21.8818 44.6902 21.7987C44.6902 21.7156 44.7314 21.6325 44.7725 21.6118C44.8137 21.591 45.2045 21.0197 45.6159 20.3341C46.0376 19.6485 46.4181 19.0668 46.4593 19.0564C46.5107 19.0356 46.5415 18.9525 46.5415 18.8694C46.5415 18.7863 46.5827 18.724 46.6238 18.724C46.7061 18.724 46.7884 18.5786 47.0352 18.0696C47.1175 17.9138 46.881 18.0176 46.3153 18.402Z" fill="#C7C2C2"/>
</svg>
